<?xml version="1.0" ?><svg height="512" preserveAspectRatio="xMidYMid" viewBox="0 0 512 512" width="512" xmlns="http://www.w3.org/2000/svg" xmlns:xlink="http://www.w3.org/1999/xlink"><defs><style>
      .cls-1 {
        fill: #fff;
      }

      .cls-2 {
        fill: #af0606;
      }

      .cls-2, .cls-3 {
        fill-rule: evenodd;
      }

      .cls-3 {
        fill: #000;
        opacity: 0.1;
      }
    </style></defs><circle class="cls-1" cx="256" cy="256" r="256"/><path class="cls-2" d="M256.000,512.000 C114.615,512.000 0.000,397.385 0.000,256.000 C0.000,114.615 114.615,0.000 256.000,0.000 C397.385,0.000 512.000,114.615 512.000,256.000 C512.000,397.385 397.385,512.000 256.000,512.000 ZM215.211,429.338 C227.042,421.744 221.331,377.140 220.985,331.058 C221.331,321.009 204.919,312.803 192.115,325.276 C156.471,365.122 138.129,387.218 136.300,398.504 C134.224,411.325 201.715,437.999 215.211,429.338 ZM97.808,236.631 C74.382,239.407 82.276,315.682 88.185,321.422 C97.423,330.398 110.191,326.908 186.341,296.370 C193.216,293.613 196.163,275.927 186.341,271.318 C127.739,243.820 113.131,234.816 97.808,236.631 ZM222.909,225.069 C219.014,132.466 222.103,70.908 207.512,68.978 C162.492,63.019 113.780,85.344 111.280,101.738 C109.651,112.419 177.236,210.418 195.964,238.559 C202.061,247.719 223.965,250.168 222.909,225.069 ZM305.669,174.966 C293.557,178.084 265.578,222.748 247.930,250.121 C241.733,259.732 251.733,275.540 265.252,273.246 C285.669,269.781 354.866,258.048 357.635,246.267 C361.441,228.942 326.086,169.075 305.669,174.966 ZM357.635,338.766 C353.136,322.134 282.349,306.336 269.101,304.078 C252.836,301.307 248.579,318.352 251.112,321.993 C260.106,346.272 293.380,400.478 303.744,404.286 C324.508,409.136 362.133,355.397 357.635,338.766 Z"/><path class="cls-3" d="M436.999,75.012 C536.959,174.972 536.959,337.039 436.999,436.999 C337.039,536.959 174.972,536.959 75.012,436.999 "/></svg>